<?xml version="1.0" encoding="UTF-8"?>
<svg id="Layer_2" data-name="Layer 2" xmlns="http://www.w3.org/2000/svg" viewBox="0 0 84.22 68">
  <defs>
    <style>
      .cls-1 {
        fill: #ff7518;
      }
    </style>
  </defs>
  <g id="Layer_1-2" data-name="Layer 1">
    <path class="cls-1" d="M80.61,64.14l-5.08-5c-6.07-5-5.34-12.14-5.41-12.88-.08-.73-.08-3.69.16-4.67.25-.98-.08-2.05-.08-2.05,1.81-7.38,7.63-5.34,7.63-5.34,2.38.25,2.46-2.05,2.46-2.05,1.64-.82,1.23-2.54,1.23-2.54l-2.88-3.04c-1.15-3.03-4.42-3.77-4.42-3.77.49-3.03-1.07-4.92-1.07-4.92-.25.9-3.69,4.53-3.94,4.59-4.02.98-2.71,1.64-5.25,3.45-2.54,1.8-7.96,4.02-10.33,2.71-2.38-1.32-22.14-3.04-30.66-3.04-2.53,0-4.5.52-6.02,1.25-1.4-1.07-3.2-3.38-4.53-6.53-1.96-4.63-2.24-9.28-.73-12.44.81-1.7,1.73-2.67,2.74-2.87,1.51-.3,3.37,1.01,3.91,1.5,1.01.93,2.58.86,3.51-.14.93-1.01.88-2.58-.13-3.52-.4-.37-3.98-3.54-8.22-2.73-2.66.51-4.78,2.4-6.31,5.62-2.14,4.49-1.9,10.5.64,16.51,1.15,2.71,2.97,5.76,5.21,7.81-.59.82-.82,1.42-.82,1.42-.74,1.72-2.78,5.58-2.05,9.1.74,3.53-1.47,5.17-1.88,5.58-.42.42-4.68,2.95-4.68,2.95L.07,61.61c-.57,2.38,2.63,3.77,2.63,3.77,1.15-.16,1.23-3.93,1.23-3.93l2.79-6.57,10.5-3.85s0,4.43-.16,5.25c-.16.82-.57,2.21-.57,2.21.41,2.87,7.47,9.51,7.47,9.51h5.33v-1.72c-.41-1.89-3.12-.98-3.12-.98l-3.94-5.99c4.18-3.28,5.9-8.78,5.9-8.78,1.97,1.64,11.4-1.4,11.4-1.4l5.66.57-1.64,13.2c-.49,3.2.25,4.35.25,4.35h2.54c1.81,0,3.04.25,3.04-1.64s-2.54-1.56-2.54-1.56l6.22-12.3c5.91-3.61,9.68,1.64,9.68,1.64l.33,1.89c2.29,3.36,14.93,11.97,14.93,11.97h6.23v-1.89c-1.07-1.97-3.61-1.22-3.61-1.22Z"/>
  </g>
</svg>